<?xml version="1.0" encoding="UTF-8"?> <svg xmlns="http://www.w3.org/2000/svg" xmlns:xlink="http://www.w3.org/1999/xlink" viewBox="0 0 613.76 192.61"> <defs> <style>.cls-1{isolation:isolate;}.cls-2{fill:url(#Áåçûìÿííûé_ãðàäèåíò_971);}.cls-3{mix-blend-mode:multiply;}.cls-4{fill:#014965;}.cls-5{fill:url(#Áåçûìÿííûé_ãðàäèåíò_965);}.cls-6{fill:url(#Áåçûìÿííûé_ãðàäèåíò_977);}.cls-7{fill:#014c69;}.cls-10,.cls-12,.cls-14,.cls-15,.cls-7{opacity:0.63;}.cls-8{fill:#606060;}.cls-9{fill:#15c3d1;opacity:0.8;}.cls-10{fill:#013247;}.cls-11{fill:#1be1f0;opacity:0.24;mix-blend-mode:overlay;}.cls-12{fill:#1cb4c0;}.cls-12,.cls-13,.cls-14,.cls-15{mix-blend-mode:screen;}.cls-13{fill:url(#Áåçûìÿííûé_ãðàäèåíò_1063);}.cls-14{fill:url(#Áåçûìÿííûé_ãðàäèåíò_1106);}.cls-15{fill:url(#Áåçûìÿííûé_ãðàäèåíò_955);}.cls-16{fill:#001d2f;}.cls-17{fill:url(#linear-gradient);}.cls-18{fill:url(#linear-gradient-2);}.cls-19{fill:url(#linear-gradient-3);}.cls-20{fill:url(#linear-gradient-4);}.cls-21{fill:url(#linear-gradient-5);}.cls-22{fill:url(#linear-gradient-6);}.cls-23{fill:url(#linear-gradient-7);}.cls-24{fill:url(#linear-gradient-8);}.cls-25{fill:url(#linear-gradient-9);}.cls-26{fill:#fff;}.cls-27{fill:#d7f1f2;}.cls-28{fill:url(#Áåçûìÿííûé_ãðàäèåíò_971-3);}.cls-29{fill:url(#Áåçûìÿííûé_ãðàäèåíò_971-4);}</style> <linearGradient id="Áåçûìÿííûé_ãðàäèåíò_971" x1="167" y1="74.93" x2="147.51" y2="129.58" gradientUnits="userSpaceOnUse"> <stop offset="0" stop-color="#00839e"></stop> <stop offset="0.28" stop-color="#00627b"></stop> <stop offset="0.57" stop-color="#01485e"></stop> <stop offset="0.82" stop-color="#01384d"></stop> <stop offset="1" stop-color="#013247"></stop> </linearGradient> <radialGradient id="Áåçûìÿííûé_ãðàäèåíò_965" cx="306.87" cy="105.28" r="359.11" gradientUnits="userSpaceOnUse"> <stop offset="0" stop-color="#00839e"></stop> <stop offset="0.28" stop-color="#015d79"></stop> <stop offset="0.4" stop-color="#014c69"></stop> <stop offset="0.99" stop-color="#013247"></stop> </radialGradient> <radialGradient id="Áåçûìÿííûé_ãðàäèåíò_977" cx="306.88" cy="94.63" r="227" gradientUnits="userSpaceOnUse"> <stop offset="0" stop-color="#1be1f0"></stop> <stop offset="0.45" stop-color="#1cb4c0"></stop> <stop offset="1" stop-color="#014c69"></stop> </radialGradient> <radialGradient id="Áåçûìÿííûé_ãðàäèåíò_1063" cx="326.85" cy="77.82" r="348.38" gradientTransform="translate(-30.59) scale(1.03 1)" gradientUnits="userSpaceOnUse"> <stop offset="0" stop-color="#1cb4c0"></stop> <stop offset="0.18" stop-color="#15858e"></stop> <stop offset="0.38" stop-color="#0d565c"></stop> <stop offset="0.57" stop-color="#083134"></stop> <stop offset="0.74" stop-color="#031617"></stop> <stop offset="0.89" stop-color="#010606"></stop> <stop offset="1"></stop> </radialGradient> <radialGradient id="Áåçûìÿííûé_ãðàäèåíò_1106" cx="326.85" cy="78.44" r="365.76" gradientTransform="translate(-30.59) scale(1.03 1)" gradientUnits="userSpaceOnUse"> <stop offset="0" stop-color="#1be1f0"></stop> <stop offset="0.1" stop-color="#17bfcc"></stop> <stop offset="0.28" stop-color="#10868f"></stop> <stop offset="0.46" stop-color="#0a565c"></stop> <stop offset="0.62" stop-color="#063134"></stop> <stop offset="0.77" stop-color="#031617"></stop> <stop offset="0.9" stop-color="#010606"></stop> <stop offset="1"></stop> </radialGradient> <radialGradient id="Áåçûìÿííûé_ãðàäèåíò_955" cx="326.85" cy="29.37" r="210.74" gradientTransform="translate(-30.59) scale(1.03 1)" gradientUnits="userSpaceOnUse"> <stop offset="0" stop-color="#1be1f0"></stop> <stop offset="0.27" stop-color="#1bdbea"></stop> <stop offset="0.63" stop-color="#1bcbd9"></stop> <stop offset="1" stop-color="#1cb4c0"></stop> </radialGradient> <linearGradient id="linear-gradient" x1="58.45" y1="117.43" x2="58.45" y2="25.24" gradientUnits="userSpaceOnUse"> <stop offset="0" stop-color="#004355"></stop> <stop offset="1" stop-color="#4aecff"></stop> </linearGradient> <linearGradient id="linear-gradient-2" x1="117.2" y1="108.21" x2="117.2" y2="20.63" xlink:href="#linear-gradient"></linearGradient> <linearGradient id="linear-gradient-3" x1="180.99" y1="96.25" x2="180.99" y2="14.21" xlink:href="#linear-gradient"></linearGradient> <linearGradient id="linear-gradient-4" x1="246.32" y1="92.42" x2="246.32" y2="9.15" xlink:href="#linear-gradient"></linearGradient> <linearGradient id="linear-gradient-5" x1="303.7" y1="90.98" x2="303.7" y2="8.4" xlink:href="#linear-gradient"></linearGradient> <linearGradient id="linear-gradient-6" x1="359.09" y1="100.5" x2="359.09" y2="1.16" xlink:href="#linear-gradient"></linearGradient> <linearGradient id="linear-gradient-7" x1="417.36" y1="96.86" x2="417.36" y2="13.59" xlink:href="#linear-gradient"></linearGradient> <linearGradient id="linear-gradient-8" x1="476.68" y1="102.27" x2="476.68" y2="19.94" xlink:href="#linear-gradient"></linearGradient> <linearGradient id="linear-gradient-9" x1="541.85" y1="125.72" x2="541.85" y2="16.88" xlink:href="#linear-gradient"></linearGradient> <linearGradient id="Áåçûìÿííûé_ãðàäèåíò_971-3" x1="473.2" y1="105.37" x2="472.07" y2="108.54" xlink:href="#Áåçûìÿííûé_ãðàäèåíò_971"></linearGradient> <linearGradient id="Áåçûìÿííûé_ãðàäèåíò_971-4" x1="473.77" y1="85.22" x2="459.09" y2="126.39" xlink:href="#Áåçûìÿííûé_ãðàäèåíò_971"></linearGradient> </defs> <title>Ресурс 6</title> <g class="cls-1"> <g id="Слой_2" data-name="Слой 2"> <g id="Layer_1" data-name="Layer 1"> <path class="cls-2" d="M144,116.8l-.77.92-1,10.22,6.13-.87h0s0,0,0,0h0l.32-.44.11-.15,8.47-11.38,5.65-7.59-1.24,6.42,2.77-12.9,2.87-12.28Z"></path> <polygon class="cls-3" points="160.39 91.75 166.74 84.11 165.91 89.3 165.62 90.71 159.13 98.53 160.39 91.75"></polygon> <polygon class="cls-4" points="143.95 116.81 147.62 127.17 141.7 128.01 142.76 116.95 143.95 116.81"></polygon> <path class="cls-5" d="M608.77,161.48C607,149.5,596.38,135,596,122.86c-.48-13.27,2.57-26.31,5.84-39.16,2-7.62,3.9-15.09-1.19-22.08-3.71-5.1-13.76-11.58-19.72-14a321.55,321.55,0,0,0-46.79-15c-22-5.35-44.5-8.21-67-10.43C413.94,17,360.2,17.17,306.86,19.54c-53.33-2.37-107-2.56-160.18,2.69-22.51,2.22-45,5.08-67,10.43a320,320,0,0,0-46.79,15c-6,2.37-16,8.85-19.73,13.95C8.07,68.61,10,76.08,12,83.7c3.28,12.85,6.33,25.89,5.85,39.16C17.38,135,6.77,149.5,5,161.49c-.89,6.07,2.11,10.68,4.26,16.22,1.4,3.63,2.64,7.31,4.19,10.88a3.91,3.91,0,0,0,1.51,2c-.22-.11-.22-2.08-.25-2.38-.08-.84-.14-1.69-.17-2.53a27.37,27.37,0,0,1,.18-4.43,21.77,21.77,0,0,1,2.75-8.48,34,34,0,0,1,7.64-8.36c3-2.5,5.91-5.17,9.07-7.48a27.45,27.45,0,0,1,2.7-1.73A92.54,92.54,0,0,1,49,150l.62-.24c23.07-8.73,47.59-14,71.88-18.34q10.32-1.85,20.66-3.43c2.06-.32,4.11-.63,6.17-.92l8.9-12,5.65-7.59-1.24,6.42-.14.65-.11.51,2,9.9.78-.08c54.31-7.14,105.69-8.76,160.56-7.33,27.75.72,55.37.39,83.15,2.7q21.24,1.78,42.39,4.6c2.22.29,4.33.59,6.41.9l6.9-8.77,9-11.42,0,.4-.19,2.73-.64,9.47-.68,9.88c5.95,1,12.6,2.08,21.17,3.35,24.3,4.35,48.82,9.6,71.89,18.34a108,108,0,0,1,11.12,4.61,38.84,38.84,0,0,1,9,6.7c5.17,5,10.1,11.07,13,17.74a30.76,30.76,0,0,1,2,6.76,41,41,0,0,1,.23,7.09c.75-.31,1-1.69,1.1-2.42a67.52,67.52,0,0,1,2.12-7.73c.82-2.43,2-4.75,2.78-7.2C607.43,170.84,609.46,166.43,608.77,161.48Z"></path> <path class="cls-6" d="M602.44,183.28c-1.09,1.93-2.15,3.91-3.14,6,3.49-7.54,8.11-19.55,5.58-27.2s-13.1-13.19-19.8-16.64c-25.66-12-68-20.59-113.32-27.27l.64-9.47.19-2.73,0-.4-9,11.42c-2.29-.33-4.59-.64-6.89-1q-10.32-1.41-20.7-2.71c-69.82-8.74-189.74-6.81-248.73-1.46-8.61.78-17.22,1.68-25.76,2.7h0l.14-.65,1.24-6.42-5.65,7.59q-6.68.83-13.27,1.75C97.77,123.22,55.31,133,28.69,145.42c-6.7,3.45-17.27,9-19.8,16.63s2.08,19.66,5.58,27.2c-1-2.06-2.06-4.05-3.14-6C5.22,172.42-1.53,163.06.49,149.38c1.77-12,7.16-23.4,7.59-35.5.48-13.27-2.57-26.32-5.85-39.16-1.94-7.63-3.9-15.1,1.19-22.08,3.72-5.1,13.77-11.59,19.73-14a321.16,321.16,0,0,1,46.79-15c83.11-20.23,304.53-41.22,473.89,0a321.55,321.55,0,0,1,46.79,15c6,2.37,16,8.85,19.72,14,5.09,7,3.14,14.46,1.19,22.09-3.27,12.84-6.32,25.88-5.84,39.15.43,12.11,5.82,23.52,7.59,35.51C615.29,163.07,608.54,172.42,602.44,183.28Z"></path> <path class="cls-7" d="M8.08,113.88C7.64,126,2.25,137.4.48,149.38c-2.35,16,7.2,26.07,13.75,39.5-16.15-41.19,5.68-18.95,9.87-79.35,1.57-22.6-2.61-45.41-7.65-67.43C12.38,44.51,6.09,49,3.42,52.64h0C-6.17,65.81,9.2,82.61,8.08,113.88Z"></path> <path class="cls-2" d="M144,116.8l-.77.92-1,10.22,6.13-.87h0s0,0,0,0h0l.32-.44.11-.15,8.47-11.38,5.65-7.59-1.24,6.42,2.77-12.9,2.87-12.28Z"></path> <polygon class="cls-8" points="160.77 125.3 160.76 125.3 161.26 115.72 161.51 114.53 161.65 113.88 161.53 114.53 161.26 115.93 160.77 125.3 160.77 125.3"></polygon> <path class="cls-9" d="M29.7,96.52c1.53,16.14-.52,32.9-8.21,47.29,2.71-5.06,22.74-10,28.27-12.06a309.7,309.7,0,0,1,32.73-10c21.24-5.21,44.07-7.79,65.8-10.17-2.31,2.9-4.34,5.23-4.34,5.23-10.29,1.2-23.59,4-33.91,5.86a500.08,500.08,0,0,0-49.36,11.26c-16.92,4.85-48.92,12.13-51.4,32.62-.94,7.8,1.56,15.57,4.08,23-5.1-13-10-22-2.7-35.27a115.74,115.74,0,0,0,14.7-51.87,135.44,135.44,0,0,0-7.71-53C23.26,64.73,28.18,80.38,29.7,96.52Z"></path> <path class="cls-10" d="M11.16,151.2c-3.78,8-6.6,17.19-3.67,25.53-8-14.6-10.11-32.74-.41-47.23a4.88,4.88,0,0,1,1.09-1.26c2.34-1.74,4.29-1.66,6.19-4.15,1.7-2.21,2.62-5.08,3.55-7.65,2.54-7.07,3.18-14.7,3.31-22.14a198.58,198.58,0,0,0-.72-20.7c-.38-4.49-1-9.16-3.57-12.92s-7.71-6.23-12-4.49c3.83-1.56,7.41-3.53,11.1-5.31,5,17.25,9.83,33,9.34,51.35C24.93,118.54,18.14,136.4,11.16,151.2Z"></path> <path class="cls-11" d="M15.87,74.45a23.71,23.71,0,0,1,2.57,8.07,25.31,25.31,0,0,1-.61,7.4,251.42,251.42,0,0,1-11.24,41c4-10.94,2.77-26.06,1.38-37.37a118,118,0,0,0-4-19.39C2.33,68.8-.22,62.75,0,57.11,5.78,61,12.31,67.47,15.87,74.45Z"></path> <path class="cls-12" d="M224.33,91.16a3.25,3.25,0,0,0,2.24,4.09,3.39,3.39,0,0,0,4.22-2.17A3.25,3.25,0,0,0,228.55,89,3.39,3.39,0,0,0,224.33,91.16Z"></path> <path class="cls-12" d="M83.24,102.21a5.8,5.8,0,0,0,4,7.28,6.05,6.05,0,0,0,7.51-3.87,5.79,5.79,0,0,0-4-7.27A6.05,6.05,0,0,0,83.24,102.21Z"></path> <path class="cls-12" d="M110.42,48.6a4.34,4.34,0,0,0,3,5.45,4.54,4.54,0,0,0,5.64-2.89,4.35,4.35,0,0,0-3-5.46A4.54,4.54,0,0,0,110.42,48.6Z"></path> <path class="cls-12" d="M53.89,50.86a4.34,4.34,0,0,0,3,5.45,4.53,4.53,0,0,0,5.63-2.89,4.35,4.35,0,0,0-3-5.46A4.53,4.53,0,0,0,53.89,50.86Z"></path> <path class="cls-12" d="M271.62,33.61a3.27,3.27,0,0,0,2.24,4.1,3.41,3.41,0,0,0,4.23-2.18,3.26,3.26,0,0,0-2.24-4.09A3.41,3.41,0,0,0,271.62,33.61Z"></path> <path class="cls-12" d="M282.07,80.12a3.25,3.25,0,0,0,2.24,4.09A3.41,3.41,0,0,0,288.54,82,3.26,3.26,0,0,0,286.29,78,3.4,3.4,0,0,0,282.07,80.12Z"></path> <path class="cls-12" d="M192,44.25a4.71,4.71,0,0,0,3.24,5.91A4.92,4.92,0,0,0,201.34,47a4.71,4.71,0,0,0-3.24-5.91A4.92,4.92,0,0,0,192,44.25Z"></path> <path class="cls-7" d="M611.69,141.67C590.45,80.24,636,65,597.31,42.1c-5,22-9.22,44.83-7.65,67.42,3.74,54,26.28,42.92,10.1,78.69l-.27.74C608.71,170,617.41,164.7,611.69,141.67Z"></path> <path class="cls-13" d="M600.58,155.64c-9.55-16.39-11.39-43.41-12.13-60.93-.7-16.34,5.49-35.95,10.78-51.44-1.47-.93-3-1.79-4.35-2.55l-.46-.23a40.89,40.89,0,0,0-3.81-1.81,344.47,344.47,0,0,0-35.35-12c-3.63-1-7.39-2-11.43-3-169.37-41.22-390.78-20.23-473.9,0A313.76,313.76,0,0,0,36.06,33.77c-4.33,1.6-8.65,3.22-12.92,4.92a39.24,39.24,0,0,0-3.8,1.8l-.46.23c-1.4.76-2.87,1.62-4.35,2.56C19.82,58.76,26,78.37,25.31,94.72c-.75,17.51-2.59,44.54-12.14,60.92.46-.45.88-.92,1.38-1.35C40.4,118,65.46,88.45,112.11,78.34q15.21-3.3,30.61-5.77c8.48-1.37,19.85-.82,27.28-5.4l-29-9.09c13.41.32,26.45,4,39.58,6.63,24,4.84,45.61-1.27,69.6-2.46,46.35-2.3,94.37,4.18,139.22-10.42a141.92,141.92,0,0,0-18.14,11c16.85,1.66,34.64,1.21,51.26,3.9,24,2.06,47.94,5.09,71.46,10.19,46.62,10.11,78.72,41,105.11,77.32C599.63,154.66,600.1,155.15,600.58,155.64Z"></path> <path class="cls-14" d="M18.93,40.7c-1.33.71-2.72,1.51-4.12,2.39a15,15,0,0,0,.92,2.58C30.94,81.5,29.11,123,9.82,156.86c4.78-8.39,10.29-16.19,13.84-25.21,11-27.82,22.28-50.49,50.06-65.41,22.94-12.31,49.16-17.06,74.39-22.94,38.66-9,77.26-7.7,116.55-6.94,9.63.19,19.14-2.8,28.68-3.94,10-1.19,21.32.49,31-1.37A317.82,317.82,0,0,0,290.8,39.4c29.21-1.77,61.85-7.5,91-4.85,26.16,2.38,53.17,12.08,79.39,16.58C481.91,54.7,503.32,57.19,524,53a11.21,11.21,0,0,0-5.19,4.83c14.78,4.87,28.83,7.35,40.71,17.45C569.72,84,578.69,95.17,582.76,108c2.64,7.83,4.32,16,7.34,23.69,3.55,9,9.06,16.82,13.83,25.21C584.65,123,582.82,81.5,598,45.67a15.85,15.85,0,0,0,.92-2.58c-1.4-.88-2.79-1.68-4.13-2.4l-.59-.31c-1.29-.67-2.53-1.26-3.61-1.7-16.39-6.52-33.31-10.35-49.88-15.61l-1-.33C370.9-17.17,152.38,3.62,69.93,23.68A314.35,314.35,0,0,0,29.4,36.24c-2.08.82-4.17,1.61-6.26,2.45-1.08.43-2.32,1-3.61,1.69Z"></path> <path class="cls-15" d="M3.42,52.64a15.9,15.9,0,0,0-1.72,3,1.84,1.84,0,0,0-.09.25,16.45,16.45,0,0,0-.95,2.88,31.28,31.28,0,0,1,8.25-7.63c6-3.85,17.58-10.4,24.46-12.45,71.55-21.23,183-28.29,257.15-28.29,108.25,0,181.57,3.57,289.87,28.29,7,1.6,18.46,8.59,24.45,12.45a31.16,31.16,0,0,1,8.26,7.63,16.45,16.45,0,0,0-1-2.88,2.67,2.67,0,0,0-.09-.26,16.15,16.15,0,0,0-1.72-3c-3.25-4.47-11.35-10-17.32-12.89-.85-.41-1.66-.77-2.4-1.07-6.25-2.48-11.92-4.61-17.5-6.53-6-2.06-11.89-3.87-18.23-5.61-3.52-1-7.16-1.91-11.06-2.86C384.78-15,179.83,1.13,86.63,20c-5.57,1.22-11.15,2.34-16.7,3.69-2.8.68-5.44,1.36-8,2.05-2.88.76-5.66,1.54-8.37,2.33C43.44,31,34.17,34.3,23.14,38.69a63.23,63.23,0,0,0-15.91,10A25.33,25.33,0,0,0,3.42,52.64Z"></path> <path class="cls-9" d="M584.06,96.52c-1.53,16.14.51,32.9,8.21,47.29a306.57,306.57,0,0,0-113.12-30.2l-.18-4.08c-.59-4.56-2-11.93-3.91-16.6-.29,4.33-2.66,15.74-2.66,15.74l-.64,9.47s54.91,8.21,81.32,15.79c16.92,4.84,48.91,12.13,51.4,32.61.94,7.81-1.57,15.58-4.09,23.05,5.11-13,10-22,2.71-35.27a115.78,115.78,0,0,1-14.7-51.88,135.39,135.39,0,0,1,7.71-53C590.5,64.73,585.58,80.38,584.06,96.52Z"></path> <path class="cls-10" d="M602.6,151.2c3.77,8,6.6,17.19,3.67,25.53a59,59,0,0,0,5.14-11.21c2.76-9.29,2-28.82-5.12-36.4-1.4-1.47-4-1.75-5.61-3.44-2.31-2.4-3.74-6.2-4.83-9.24-2.54-7.07-3.18-14.71-3.31-22.14a201.37,201.37,0,0,1,.71-20.7c.39-4.49,1-9.17,3.58-12.92s7.71-6.23,12-4.49c-3.83-1.56-7.42-3.53-11.1-5.31-5,17.25-9.84,33-9.34,51.34C588.83,118.54,595.62,136.4,602.6,151.2Z"></path> <path class="cls-11" d="M597.89,74.45a23.71,23.71,0,0,0-2.57,8.07,25.65,25.65,0,0,0,.6,7.4,252.47,252.47,0,0,0,11.25,41c-4-10.94-2.77-26.07-1.38-37.37a118.16,118.16,0,0,1,4.05-19.4c1.59-5.31,4.14-11.37,3.9-17C608,61,601.45,67.47,597.89,74.45Z"></path> <path class="cls-12" d="M389.43,91.16a3.25,3.25,0,0,1-2.24,4.09A3.41,3.41,0,0,1,383,93.08a3.27,3.27,0,0,1,2.25-4.1A3.4,3.4,0,0,1,389.43,91.16Z"></path> <path class="cls-12" d="M530.52,102.21a5.8,5.8,0,0,1-4,7.28,6,6,0,0,1-7.51-3.87,5.79,5.79,0,0,1,4-7.27A6,6,0,0,1,530.52,102.21Z"></path> <path class="cls-12" d="M503.34,48.59a4.35,4.35,0,0,1-3,5.46,4.54,4.54,0,0,1-5.64-2.9,4.34,4.34,0,0,1,3-5.45A4.54,4.54,0,0,1,503.34,48.59Z"></path> <path class="cls-12" d="M559.87,50.85a4.35,4.35,0,0,1-3,5.46,4.53,4.53,0,0,1-5.63-2.9,4.34,4.34,0,0,1,3-5.45A4.53,4.53,0,0,1,559.87,50.85Z"></path> <path class="cls-12" d="M342.14,33.61a3.26,3.26,0,0,1-2.24,4.09,3.41,3.41,0,0,1-4.23-2.17,3.26,3.26,0,0,1,2.24-4.09A3.41,3.41,0,0,1,342.14,33.61Z"></path> <path class="cls-12" d="M331.69,80.12a3.26,3.26,0,0,1-2.24,4.09A3.41,3.41,0,0,1,325.22,82a3.27,3.27,0,0,1,2.25-4.1A3.41,3.41,0,0,1,331.69,80.12Z"></path> <path class="cls-12" d="M421.77,44.25a4.71,4.71,0,0,1-3.24,5.91A4.93,4.93,0,0,1,412.42,47a4.7,4.7,0,0,1,3.24-5.91A4.92,4.92,0,0,1,421.77,44.25Z"></path> <path class="cls-9" d="M456.72,116l6.59-7.65c-113.11-10.88-202.26-11.71-300.42-.89l-1.43,7.46C262.49,102.77,342.94,104.77,456.72,116Z"></path> <path class="cls-16" d="M574.27,40.51a6.23,6.23,0,0,0-2.73-1.39c-8-1.87-11.93-2.76-20-4.53a6.48,6.48,0,0,0-5.35,1.24A6,6,0,0,0,544.42,38v.08a5.84,5.84,0,0,0-.68,2.66l-.2,10.15,0,2.84c-6.88-7.45-14-15.14-21.61-23.23a6.42,6.42,0,0,0-7-1.61,6.48,6.48,0,0,0-4.14,5.83s-.4,14.18-.4,14.2v.16a44.75,44.75,0,0,0-5.22-8.64c-7.13-9.07-16.11-14.37-26.69-15.77-10.85-1.42-20.54,1.79-28,9.3A33.42,33.42,0,0,0,445,41.59l-.14-3.81-.44-12a6.42,6.42,0,0,0-6.12-6.18c-14.43-.68-29.07-1.19-43.49-1.52a6.83,6.83,0,0,0-1.68.2,6.26,6.26,0,0,0-1.54-2A6.13,6.13,0,0,0,389,15a5.25,5.25,0,0,0-1-.17c-8.13-.77-12.11-1.12-20.22-1.75a6.39,6.39,0,0,0-4.84,1.65,6.17,6.17,0,0,0-1.39,1.86,6.26,6.26,0,0,0-.69,2.8l-.16,11.44s0,3.11,0,3.13c-7.44-6.95-14.89-13.85-22.26-20.62a6.39,6.39,0,0,0-9.84,1.43l-.18-.15a.23.23,0,0,0-.07-.07A6.34,6.34,0,0,0,323.86,13c-14.42.55-29.08,1.28-43.56,2.18a5.37,5.37,0,0,0-1,.15h-.05A6.36,6.36,0,0,0,275,13.82h-.12c-17.9.58-36.07,1.46-54,2.62a6.4,6.4,0,0,0-5.85,5v.05a4.34,4.34,0,0,0-.09.52l-1.46,12-.13,1A33.35,33.35,0,0,0,181,18.79c-10.68,1-19.75,5.95-26.95,14.8A45,45,0,0,0,147.91,44c-.06-.26-.11-.53-.18-.78-.12-.53-.25-1-.41-1.56a23.18,23.18,0,0,0-2-5,20.14,20.14,0,0,0-8.94-8.6c-5.78-2.82-13-3.68-21.47-2.53a183.08,183.08,0,0,0-29.7,6.59l-.23.08-.1-.09a6.49,6.49,0,0,0-3.81-1.32,6.25,6.25,0,0,0-1.48.15c-14.89,3.29-30,6.8-44.8,10.46a6.34,6.34,0,0,0-4.13,3.21v.08a6,6,0,0,0-.76,3l.56,69.49a6.42,6.42,0,0,0,6.42,6.37,6.27,6.27,0,0,0,1.43-.16c9-2.07,13.42-3,22.45-5a6.41,6.41,0,0,0,5.07-6.11l.57-22c4.31-.83,7.65-1.45,13-2.44a6.45,6.45,0,0,0,2.74-1.23l.8,21.72a6.41,6.41,0,0,0,6.41,6.18,6.51,6.51,0,0,0,1.24-.12c8.17-1.59,12.15-2.34,20.31-3.8a6.41,6.41,0,0,0,5.28-6.18l.07-3.57,5.57,6.9a6.41,6.41,0,0,0,8.83,1.12c8-6,11.94-8.84,20-14.67a6.33,6.33,0,0,0,1.85-2.11,30.76,30.76,0,0,0,2.33,2.51l.65.6h0l.25.23h0a40.55,40.55,0,0,0,3.43,3l1.26-6.78,3.19-3.83,1.93-2.32,1.23-1.49-.6,1.82.44,3.52L164.94,94l-.53,7c4.87,2.64,7.72,2.65,13.91,2.65,1.34,0,2.72-.06,4.11-.19a39.71,39.71,0,0,0,26.73-13.21c7.53-8.36,11-21.77,10.94-30.69a44.2,44.2,0,0,0-.26-4.45c2.9-.19,5.3-.34,7.6-.47l1.81-.11c-5.08,11.33-10.35,23.14-16,35.8a6.43,6.43,0,0,0,5.86,9h.36c17.17-1,34.55-1.69,51.7-2.14a6.42,6.42,0,0,0,4.29-1.81,6.2,6.2,0,0,0,.82,1,6.44,6.44,0,0,0,4.44,1.77H281c16.76-.73,32.12-1.14,47-1.26a6.21,6.21,0,0,0,1.76-.27,6.3,6.3,0,0,0,2.65.59h0c9.16,0,13.62,0,22.78.08h.08a6.42,6.42,0,0,0,6.41-6.17l.38-9.55C368.11,87,374.69,93,382.39,100a6.44,6.44,0,0,0,4.34,1.68,6.56,6.56,0,0,0,2.56-.53,7.12,7.12,0,0,0,1.36-.82l.18-.16.16-.13a6.38,6.38,0,0,0,3.17,1c16.73.7,32.06,1.59,46.85,2.73l.49,0a6.4,6.4,0,0,0,6.42-6.76l-.27-4.93a35.61,35.61,0,0,0,2.29,3,41.62,41.62,0,0,0,11.83,9.54l3.68-5.45,2.84-4.2L470,92.45l3.45-5.11-.28,6-.14,3-.24,5-.33,7.18c1.29.29,2.61.52,4,.7a45.49,45.49,0,0,0,5.75.38c8.68,0,16.21-2.77,22-8.16a32.26,32.26,0,0,0,4.89-5.77l-.31,11.44a6.41,6.41,0,0,0,5.57,6.55c9.15,1.22,13.58,1.84,22.61,3.19a6.4,6.4,0,0,0,7.36-6.05l.36-8c6.6,6.94,13.2,13.92,19.7,20.86a39.76,39.76,0,0,0,3.07,2.88,33.18,33.18,0,0,0,4.05,3,11,11,0,0,0,1.86,1c.58.23,1.64.63,2-.11a1.9,1.9,0,0,0,.17-.74,62.35,62.35,0,0,0-.09-8c0-.16,0-.32,0-.48,0-1.3,0-2.61,0-3.91V117c0-.62,0-1.24,0-1.87l0-2.33c0-.92,0-1.83,0-2.75l0-3.1c0-1.14,0-2.28,0-3.42l.06-3.68,0-3.89.06-4,.06-4.16.06-4.23,0-4.24.06-4.2.06-4.12.06-4c0-1.26,0-2.53,0-3.79s0-2.37,0-3.56l.05-3.28c0-1,0-1.95,0-2.93l0-2.56,0-2.12,0-1.64c0-.36,0-.73,0-1.1,0-.17,0-.34,0-.52v0A6.4,6.4,0,0,0,574.27,40.51Zm-435.46,30c.46-.45.92-.89,1.35-1.36a32.51,32.51,0,0,0,3.21-4c0,.12,0,.23,0,.35a53.43,53.43,0,0,0,.8,8.07h0c.22,1.29.5,2.54.82,3.76C143,75.08,141,73,138.81,70.5Zm44.44-4.74a2.79,2.79,0,0,1-2.08,1.16,1.32,1.32,0,0,1-1.25-.36,5.54,5.54,0,0,1-1.15-3.62c0-.25,0-.49,0-.73a9.14,9.14,0,0,1,1.5-4.44,2.7,2.7,0,0,1,1.95-1h0l.25,0a1.47,1.47,0,0,1,.82.19,6.24,6.24,0,0,1,1.13,2.58,8.27,8.27,0,0,1,.2,1.8A7.41,7.41,0,0,1,183.25,65.76Zm91-7.13c-.11,0-.22,0-.32,0-3.6.15-6.36.27-9,.41l2-4.55c2.51-5.67,4.94-11.19,7.34-16.59V58.63Zm205,14c-.17.19-.52.26-1,.19a3.3,3.3,0,0,1-2.26-1.4A7.91,7.91,0,0,1,474.52,67v-.2a7,7,0,0,1,1.2-4.12,1.23,1.23,0,0,1,.63-.12,1.94,1.94,0,0,1,.33,0,3,3,0,0,1,2.11,1.24A9.47,9.47,0,0,1,480.14,67h0a10.21,10.21,0,0,1,.23,2.13A5.22,5.22,0,0,1,479.26,72.63Z"></path> <polygon class="cls-16" points="465.45 99.19 461.77 104.64 465.03 106.36 465.45 99.19"></polygon> <polygon class="cls-3" points="465.45 99.19 473.46 87.34 473.04 96.4 473.09 95.28 465.02 106.49 465.45 99.19"></polygon> <polygon class="cls-3" points="160.39 91.75 166.74 84.11 165.91 89.3 165.62 90.71 159.13 98.53 160.39 91.75"></polygon> <path class="cls-17" d="M30.58,37.88,34.37,37C49.2,33.3,64.26,29.79,79.15,26.5l5.71-1.26,1.46,30.44-4.43.83.68,23.28-4.17.76c-5.86,1.07-9.31,1.72-14.22,2.67l-.69,27.05-3.81.81c-9,1.92-13.44,2.9-22.46,5l-6,1.38Z"></path> <path class="cls-18" d="M149.77,79.87c-.5-.56-1-1.12-1.47-1.64h0l-4.13-4.61h0c-1.38-1.54-2.67-3-4-4.46L136,64.5a31.11,31.11,0,0,0,7.72-10c.31-.62.59-1.25.85-1.89v0a23.93,23.93,0,0,0,1.7-7.7s0,0,0,0c0-.47,0-.93,0-1.41a22.48,22.48,0,0,0-.73-5.82c-.08-.34-.16-.68-.25-1A19.65,19.65,0,0,0,135,23.51a31.06,31.06,0,0,0-13.76-2.88,50.21,50.21,0,0,0-6.86.49A179.38,179.38,0,0,0,85,27.62l-.43.14L81,28.9l.06,1.9,1,25.68,1.9,51.73,5.67-1.11c8.18-1.6,12.17-2.34,20.33-3.8l4-.72.25-11.66,8.1,10.06,3,3.69,3.81-2.83c8-6,11.95-8.85,20-14.68l3.38-2.46,1-.76ZM115.46,45.44a.38.38,0,0,1,.19,0,6.13,6.13,0,0,1,.27,2.08c0,2.14-.49,2.83-.59,2.94a2.08,2.08,0,0,1-1.4.84,1,1,0,0,1-.24,0,.5.5,0,0,1-.19,0,5.76,5.76,0,0,1-.26-2.06,5,5,0,0,1,.59-3,2.08,2.08,0,0,1,1.39-.85Z"></path> <path class="cls-19" d="M217.44,47.82a51.43,51.43,0,0,0-4-13.75s0,0,0,0a35,35,0,0,0-6.42-9.8,31.16,31.16,0,0,0-23.25-10c-1.11,0-2.26,0-3.41.16-10.27.94-19,5.74-25.93,14.27a45.72,45.72,0,0,0-7.14,13c-.39,1.08-.75,2.17-1.07,3.26,0,0,0,0,0,0a54.49,54.49,0,0,0-1.7,7.7v0a42.44,42.44,0,0,0-.44,6.94,44.76,44.76,0,0,0,4.2,18.63h0a33.5,33.5,0,0,0,4.07,6.47,29.59,29.59,0,0,0,2.71,3,28.43,28.43,0,0,0,5.31,4.06l3.19-3.83,1.93-2.32,1.23-1.49-.31,2-.52,3.24-1,4.69c4.17,1.84,7.59,2.26,12.67,2.26,1.28,0,2.62-.06,3.94-.18a38.28,38.28,0,0,0,25.76-12.73c7.27-8.07,10.58-21,10.57-29.68A42.51,42.51,0,0,0,217.44,47.82Zm-33,11.66a7.22,7.22,0,0,1-.78,1.27,4.24,4.24,0,0,1-3.11,1.76l-.38,0a2.83,2.83,0,0,1-1.39-.32,2.63,2.63,0,0,1-.74-.56,7,7,0,0,1-1.52-4.6,10.87,10.87,0,0,1,1.8-6,4.19,4.19,0,0,1,3-1.66,3.12,3.12,0,0,1,2.36.71,8.79,8.79,0,0,1,1.66,5.31A8.68,8.68,0,0,1,184.46,59.48Z"></path> <path class="cls-20" d="M213.87,85c6-13.5,11.6-26,17-38-4.11.22-7.76.44-13.16.78l-5.93.38,4.39-35.89,4.09-.26c17.91-1.15,36.06-2,53.95-2.62l7.87-.25-3.2,7.2c-5.42,12.2-11,24.82-17,38.39,3.5-.18,6.74-.33,11.42-.52l5.83-.25-4.46,35.74-4.25.11c-17.16.45-34.57,1.17-51.74,2.14l-8.09.46Z"></path> <path class="cls-21" d="M275,11.07l4.63-.29c14.47-.9,29.12-1.64,43.53-2.19l4.93-.19,1.23,30.5h-4.49l.46,18.82,5.27.09,1.83,31.63-5.19,0c-14.85.12-30.23.53-47,1.26l-5.15.22Z"></path> <path class="cls-22" d="M382.65,93c-8.69-7.94-16-14.56-22.68-20.59l-.71,17.5-4.8,0c-6.17-.08-10.06-.1-14.34-.1l-8.46,0-5.08,0,2-88.68,8,7.39c8.17,7.51,16.45,15.18,24.7,22.89l.31-23.19,5.26.42c8.11.64,12.07,1,20.2,1.74l4.51.43-.76,89.66Z"></path> <path class="cls-23" d="M440.38,96.43c-14.8-1.15-30.14-2.05-46.91-2.74l-4.74-.2.22-79.9,5,.12c14.41.33,29,.84,43.45,1.51l4.54.22,1.12,30.61-4.49-.37.4,18.81,5.27.55L446,96.86Z"></path> <path class="cls-24" d="M510.91,50.48c-.17-.52-.33-1-.53-1.55,0,0,0,0,0,0a48.06,48.06,0,0,0-7.12-13.44c-6.89-8.75-15.53-13.87-25.73-15.21a37.17,37.17,0,0,0-4.79-.32,30,30,0,0,0-22,9.19,32.75,32.75,0,0,0-6,8.65h0a45.69,45.69,0,0,0-1.86,4.3v0c-.46,1.26-.88,2.54-1.24,3.81a46.17,46.17,0,0,0-1.85,12.31,43.9,43.9,0,0,0,.51,6.39,54.06,54.06,0,0,0,4.73,15.5v0a37,37,0,0,0,5.21,8.06,39.71,39.71,0,0,0,15.14,11l2.84-4.2L470,92.45l3.45-5.11-.28,6-.14,3-.24,5c1,.21,2,.38,3.08.52a43.57,43.57,0,0,0,5.52.36c8.29,0,15.56-2.67,21-7.75A31.84,31.84,0,0,0,510,83.67v0a44.43,44.43,0,0,0,3.5-16.9A50.23,50.23,0,0,0,510.91,50.48ZM480.14,67h0a4.71,4.71,0,0,1-.52.7,2.2,2.2,0,0,1-1.78.69l-.56,0A4.66,4.66,0,0,1,474.52,67a6.82,6.82,0,0,1-.49-.58,9.3,9.3,0,0,1-1.74-5.52,8.32,8.32,0,0,1,1.61-5.12,2.27,2.27,0,0,1,1.71-.59l.51,0a4.48,4.48,0,0,1,3.15,1.87,11.12,11.12,0,0,1,1.83,6.21A7.09,7.09,0,0,1,480.14,67Z"></path> <path class="cls-25" d="M564.7,116.79C557.38,109,550,101.15,542.6,93.4l-.77,17-5.42-.81c-9.08-1.37-13.53-2-22.63-3.2l-4.41-.59,2.48-88.88,8.21,8.75c8.5,9.07,16.45,17.63,24.1,25.94l.43-22.7,5.87,1.28c8.08,1.76,12,2.65,20,4.52l3.87.9-1.26,90.15Z"></path> <path class="cls-26" d="M58.33,62.17c.13-2.46.2-3.68.34-6.14,9-1.85,13.49-2.73,22.51-4.42-.39-8.11-.58-12.17-1-20.28Q57.82,36.27,35.56,41.74q.28,34.76.55,69.49c9-2.06,13.52-3.06,22.54-5,.28-10.83.42-16.25.69-27.1,7.26-1.43,10.9-2.12,18.17-3.45-.2-6.91-.3-10.37-.51-17.29C69.53,59.85,65.79,60.61,58.33,62.17Z"></path> <path class="cls-26" d="M128.68,63.8a28.25,28.25,0,0,0,10.58-11.45,19.48,19.48,0,0,0,2.08-8.83,17.54,17.54,0,0,0-.58-4.64q-1.71-7.86-8-10.94C128.13,25.66,122.18,25,115,26a173,173,0,0,0-28.95,6.44q1.29,34.9,2.57,69.79c8.16-1.59,12.24-2.35,20.41-3.81.17-8.43.26-12.65.43-21.08,6.65,8.16,10,12.27,16.63,20.52,8-5.95,12-8.89,20-14.72C139.14,75.37,135.65,71.49,128.68,63.8ZM110.1,43.08a7,7,0,0,1,4.43-2.51A5.36,5.36,0,0,1,119,41.81c1.21,1,1.85,3,1.87,5.71s-.6,4.83-1.81,6.21a7,7,0,0,1-4.43,2.49A5.36,5.36,0,0,1,110.16,55c-1.21-1-1.85-2.93-1.86-5.69S108.89,44.46,110.1,43.08Z"></path> <path class="cls-26" d="M212.49,48.12c-.12-.79-.26-1.57-.44-2.38v0c-1.37-6.64-4.32-13.66-8.56-18.08a26.65,26.65,0,0,0-22.65-8.35c-8.93.81-16.48,5-22.55,12.47-5.78,7.09-9.45,18.71-9.25,27.72.24,9.83,3.21,18.59,9.48,24.67a24.58,24.58,0,0,0,5.06,3.77l1.93-2.32,1.23-1.49-.31,2-.49,3.08c4.62,2.16,9.28,2.54,15.17,2A33.42,33.42,0,0,0,203.65,80c5.86-6.52,9.3-18,9.29-26.38A37.76,37.76,0,0,0,212.49,48.12Zm-38.18.06a9,9,0,0,1,6.62-3.74A7.53,7.53,0,0,1,187.58,47a14.18,14.18,0,0,1,0,16.74A9.13,9.13,0,0,1,181,67.42a7.72,7.72,0,0,1-6.65-2.49,11.86,11.86,0,0,1-2.77-7.86A15.58,15.58,0,0,1,174.31,48.18Z"></path> <path class="cls-26" d="M274.35,14.34q-26.93.87-53.79,2.61c-1.28,10.36-1.91,15.55-3.18,25.92,8.51-.54,12.77-.78,21.28-1.19Q228.49,64.35,218.38,87q26-1.47,51.9-2.14c1.29-10.3,1.93-15.45,3.21-25.74-7.75.32-11.62.52-19.38,1Q264.19,37.21,274.35,14.34Z"></path> <path class="cls-26" d="M326.83,78.71v0c-.31-5.34-.55-9.45-.93-16-9.54-.16-14.31-.2-23.85-.19-.11-2.55-.17-3.83-.28-6.37,7.42,0,11.13,0,18.55.12-.16-6.27-.23-9.4-.38-15.67-7.31.09-11,.16-18.29.33-.07-2.65-.1-4-.16-6.63,9.08-.19,13.62-.25,22.7-.28-.33-8.18-.5-12.27-.83-20.46q-21.74.86-43.41,2.19,0,35.05,0,70.12c15.56-.68,31.15-1.14,46.71-1.28h.47C327.05,82.38,326.93,80.48,326.83,78.71Z"></path> <path class="cls-26" d="M366.49,13.59l-.39,29.1q-16.34-15.33-32.83-30.5-.75,33.21-1.5,66.43c0,2.08-.09,4.17-.14,6.26h.51c8.82,0,13.4,0,22.38.07.37-9.28.56-13.91.94-23.19Q370.81,75.47,386,89.38q.33-37,.64-74C378.57,14.57,374.54,14.22,366.49,13.59Z"></path> <path class="cls-26" d="M439.58,69.52c-9.52-1-14.28-1.43-23.8-2.24-.11-2.55-.16-3.83-.26-6.38,7.4.63,11.11,1,18.5,1.69-.12-6.28-.19-9.42-.32-15.7-7.29-.53-10.95-.78-18.24-1.22-.06-2.65-.09-4-.14-6.64,9.05.58,13.59.91,22.65,1.65-.31-8.21-.46-12.31-.76-20.52q-21.68-1-43.34-1.52-.09,35.05-.19,70.11,23.57,1,47.08,2.75C440.29,82.71,440.05,78.31,439.58,69.52Z"></path> <path class="cls-26" d="M499.37,38.52c-6.06-7.71-13.57-12.2-22.48-13.36s-16.53,1.34-22.61,7.46-9.48,17.46-9.48,25.64c0,8.47,3.43,20,9.25,26.74a34.53,34.53,0,0,0,14.24,10L470,92.45l3.45-5.11-.28,6-.14,3c1.14.25,2.29.45,3.48.61,9,1.18,16.85-.81,22.54-6.11,6.25-5.81,9.24-14.45,9.48-24.29C508.77,57.5,505.08,45.79,499.37,38.52Zm-29.24,14a7.32,7.32,0,0,1,6.63-2.27,9.42,9.42,0,0,1,6.6,4,16.16,16.16,0,0,1,2.68,9,11.46,11.46,0,0,1-2.77,7.74,7.33,7.33,0,0,1-6.62,2.23,9.68,9.68,0,0,1-6.61-4,14.16,14.16,0,0,1-2.69-8.45A13.2,13.2,0,0,1,470.13,52.57Z"></path> <path class="cls-26" d="M549.41,35q-.27,14.52-.55,29Q532.78,46.4,516.45,29q-1,36.22-2,72.44c9.1,1.21,13.64,1.85,22.72,3.21.41-9.22.63-13.83,1-23q15.13,15.84,30.11,31.81.53-37,1-73.94C561.38,37.61,557.39,36.71,549.41,35Z"></path> <path class="cls-27" d="M74.35,68.89c-15.11,2.35-27.22,4.4-35.56,5.86l.26,32.78c6.13-1.4,10.28-2.31,16.71-3.69l.68-27.15,2.33-.45c6.43-1.27,10-1.95,15.71-3Z"></path> <path class="cls-27" d="M74.47,73.24c-5.74,1.05-9.27,1.73-15.7,3l-2.33.46-.68,27.15c-6.44,1.37-10.58,2.28-16.71,3.69l-.26-32.78c8.34-1.46,20.45-3.52,35.56-5.87Z"></path> <path class="cls-27" d="M126.49,65.79l-2.35-2.59L127,61.38c-13.27,1.73-25.59,3.46-36.72,5.1l1.19,32.21c5.37-1,9.07-1.73,14.65-2.74l.56-26.72,5.09,6.25c6.07,7.46,9.33,11.47,14.85,18.32,5.74-4.26,9.44-7,15.09-11.1C136.15,76.49,132.76,72.72,126.49,65.79Z"></path> <path class="cls-27" d="M126.49,65.79l-2.35-2.59L127,61.38c-13.27,1.73-25.59,3.46-36.72,5.1l1.19,32.21c5.37-1,9.07-1.73,14.65-2.74l.56-26.72,5.09,6.25c6.07,7.46,9.33,11.47,14.85,18.32,5.74-4.26,9.44-7,15.09-11.1C136.15,76.49,132.76,72.72,126.49,65.79Z"></path> <path class="cls-27" d="M209.94,52.18q-8.46.76-16.71,1.58c.05.53.07,1.06.07,1.59A16.67,16.67,0,0,1,190,65.5a12.23,12.23,0,0,1-8.74,4.88c-.36,0-.73.05-1.09.05a10.56,10.56,0,0,1-8-3.54,14.68,14.68,0,0,1-3.51-9.81c0-.24,0-.5,0-.74C163,57,157.44,57.61,152,58.25c0,.39,0,.78,0,1.16.22,9.58,3.19,17.4,8.57,22.61a21,21,0,0,0,4.93,3.58l1.23-1.49-.6,1.82a26.06,26.06,0,0,0,11.47,2.43c1.06,0,2.13,0,3.23-.15a30.6,30.6,0,0,0,20.6-10.16C207,71.89,210,60.89,210,53.66,210,53.19,210,52.69,209.94,52.18Z"></path> <path class="cls-27" d="M209.94,52.18q-8.46.76-16.71,1.58c.05.53.07,1.06.07,1.59A16.67,16.67,0,0,1,190,65.5a12.23,12.23,0,0,1-8.74,4.88c-.36,0-.73.05-1.09.05a10.56,10.56,0,0,1-8-3.54,14.68,14.68,0,0,1-3.51-9.81c0-.24,0-.5,0-.74C163,57,157.44,57.61,152,58.25c0,.39,0,.78,0,1.16.22,9.58,3.19,17.4,8.57,22.61a21,21,0,0,0,4.93,3.58l1.23-1.49-.6,1.82a26.06,26.06,0,0,0,11.47,2.43c1.06,0,2.13,0,3.23-.15a30.6,30.6,0,0,0,20.6-10.16C207,71.89,210,60.89,210,53.66,210,53.19,210,52.69,209.94,52.18Z"></path> <path class="cls-27" d="M254.28,63.07l-4.82.28,1.95-4.43q2.31-5.27,4.55-10.34-8.93.57-17.7,1.24c-4.85,10.81-9.86,22-15.19,34,14.82-.8,29.79-1.41,44.58-1.82l2.47-19.72C264.48,62.52,260.77,62.7,254.28,63.07Z"></path> <path class="cls-27" d="M270.12,62.27,267.65,82c-14.8.41-29.76,1-44.59,1.82,5.34-12,10.35-23.18,15.2-34q8.76-.66,17.7-1.24-2.25,5.07-4.56,10.34l-1.94,4.42,4.82-.27C260.77,62.7,264.48,62.51,270.12,62.27Z"></path> <path class="cls-27" d="M323.11,65.6c-7.59-.13-12.2-.16-20.16-.16h-3.74l-.54-12.29h4.51c5.44,0,8.91,0,14.11.08l-.19-7.49c-11.45.3-22.86.73-34.17,1.29l0,35.71c14.52-.61,28-1,41.09-1.11Z"></path> <path class="cls-27" d="M324,81.63c-13.06.13-26.56.5-41.08,1.1l0-35.71c11.31-.55,22.72-1,34.17-1.28l.19,7.49c-5.2-.06-8.68-.08-14.11-.08h-4.51l.54,12.29h3.73c8,0,12.58,0,20.16.15Z"></path> <path class="cls-27" d="M369,45.41l-4.43,0c-9.68-.12-19.4-.1-29.11,0l-.82,36.52h5.45c3.61,0,6.94,0,11.56.06l1.06-26.58,4.68,4.18c7.72,6.89,15.79,14.17,25.65,23.18l.32-37Q376.22,45.52,369,45.41Z"></path> <path class="cls-27" d="M383.39,45.73l-.32,37c-9.87-9-17.94-16.29-25.65-23.17l-4.68-4.18L351.68,82c-4.62,0-7.95-.07-11.57-.07h-5.44l.82-36.52c9.71-.11,19.43-.13,29.11,0L369,49.45l0-4.05Q376.23,45.52,383.39,45.73Z"></path> <path class="cls-27" d="M436.75,72.21c-7.93-.81-12.57-1.24-21.22-2l-2.6-.23-.51-12.34,3.35.28c6.27.54,9.85.85,15.23,1.37l-.21-9.67c-5.6-.4-9.13-.63-15.5-1l-2.73-.17,0-1.48q-7.84-.47-15.76-.79l-.11,39.72c14.5.63,28,1.41,41,2.38Z"></path> <path class="cls-27" d="M437.62,88.29c-13-1-26.47-1.74-41-2.38l.11-39.72q7.94.35,15.77.79l0,1.49,2.72.16c6.37.39,9.91.62,15.51,1l.21,9.67c-5.38-.52-9-.84-15.23-1.37l-3.35-.29.5,12.35,2.61.23c8.64.73,13.29,1.15,21.22,2Z"></path> <path class="cls-27" d="M504.83,58.44q-8.65-1.8-17.61-3.3A19.61,19.61,0,0,1,489,63.33a14.49,14.49,0,0,1-3.54,9.72,10.14,10.14,0,0,1-7.63,3.28,14.26,14.26,0,0,1-1.58-.1,12.7,12.7,0,0,1-8.61-5.16,17.23,17.23,0,0,1-3.25-10.22,16.72,16.72,0,0,1,2.44-8.78q-8.91-1.18-18-2.13a37.56,37.56,0,0,0-1.05,8.32c0,7.27,3,18.43,8.51,24.8A31.68,31.68,0,0,0,470,92.45l3.45-5.11-.28,6a29.81,29.81,0,0,0,3.72.7,35,35,0,0,0,4.5.31c6.36,0,11.62-1.91,15.64-5.65,5.36-5,8.31-12.65,8.55-22.18A37.83,37.83,0,0,0,504.83,58.44Z"></path> <path class="cls-27" d="M504.83,58.44q-8.65-1.8-17.61-3.3A19.61,19.61,0,0,1,489,63.33a14.49,14.49,0,0,1-3.54,9.72,10.14,10.14,0,0,1-7.63,3.28,14.26,14.26,0,0,1-1.58-.1,12.7,12.7,0,0,1-8.61-5.16,17.23,17.23,0,0,1-3.25-10.22,16.72,16.72,0,0,1,2.44-8.78q-8.91-1.18-18-2.13a37.56,37.56,0,0,0-1.05,8.32c0,7.27,3,18.43,8.51,24.8A31.68,31.68,0,0,0,470,92.45l3.45-5.11-.28,6a29.81,29.81,0,0,0,3.72.7,35,35,0,0,0,4.5.31c6.36,0,11.62-1.91,15.64-5.65,5.36-5,8.31-12.65,8.55-22.18A37.83,37.83,0,0,0,504.83,58.44Z"></path> <path class="cls-27" d="M551.7,71.09c-.19-.07-.37-.14-.57-.2h0c-10.32-3.56-21.21-6.69-32.6-9.41l-1,37.39c6.41.85,10.6,1.45,16.87,2.38l1.22-26.69,4.78,5c8.33,8.73,16.76,17.62,25.11,26.49l.41-29.6Q559,73.62,551.7,71.09Z"></path> <path class="cls-27" d="M565.86,76.45,565.44,106c-8.34-8.87-16.77-17.76-25.11-26.48l-4.78-5-1.21,26.69c-6.27-.93-10.46-1.52-16.87-2.38l1-37.38c11.39,2.72,22.29,5.84,32.61,9.41h0l.55.61v-.41C556.55,72.78,561.28,74.55,565.86,76.45Z"></path> <polygon class="cls-4" points="143.95 116.81 147.62 127.17 141.7 128.01 142.76 116.95 143.95 116.81"></polygon> <polygon class="cls-28" points="472.4 108.67 472.59 105.94 472.52 107.45 472.47 108.57 472.4 108.67"></polygon> <path class="cls-29" d="M465,106.36,456.72,116l0,9.73h0l.15,0h0l-.14,0,6.9-8.77,9-11.42.49-10.26Z"></path> <polygon class="cls-8" points="472.62 105.53 472.59 105.94 472.61 105.54 472.62 105.53"></polygon> </g> </g> </g> </svg> 